<?xml version="1.0" encoding="UTF-8"?>
<svg xmlns="http://www.w3.org/2000/svg" xmlns:xlink="http://www.w3.org/1999/xlink" width="0" height="0">
  <symbol id="search" width="24" height="24" viewBox="0 0 24 24">
    <path fill-rule="evenodd" clip-rule="evenodd" d="M17 11.5C17 14.5376 14.5376 17 11.5 17C8.46243 17 6 14.5376 6 11.5C6 8.46243 8.46243 6 11.5 6C14.5376 6 17 8.46243 17 11.5ZM19 11.5C19 15.6421 15.6421 19 11.5 19C7.35786 19 4 15.6421 4 11.5C4 7.35786 7.35786 4 11.5 4C15.6421 4 19 7.35786 19 11.5ZM16.2929 17.7071L20.2929 21.7071L21.7071 20.2929L17.7071 16.2929L16.2929 17.7071Z"/>
  </symbol>
  <symbol id="arrow" width="18" height="18" viewBox="0 0 18 18">
    <path d="M10 1L2 9M2 9L10 17M2 9H18" stroke-width="2"/>
  </symbol>
  <symbol id="burger" viewBox="0 0 24 24">
    <path d="M4 7H20" stroke-width="2"/>
    <path d="M4 12H20" stroke-width="2"/>
    <path d="M4 17H20" stroke-width="2"/>
  </symbol>
  <symbol id="grid" viewBox="0 0 24 24" fill="none">
    <rect x="1" y="1" width="22" height="9" rx="1" stroke-width="1"/>
    <rect x="1" y="14" width="22" height="9" rx="1" stroke-width="1"/>
  </symbol>
  <symbol id="column" viewBox="0 0 24 24" fill="none">
    <rect x="1" y="1" width="9" height="9" rx="1" stroke-width="1"/>
    <rect x="1" y="14" width="9" height="9" rx="1" stroke-width="1"/>
    <rect x="14" y="1" width="9" height="9" rx="1" stroke-width="1"/>
    <rect x="14" y="14" width="9" height="9" rx="1" stroke-width="1"/>
  </symbol>
</svg>